REM DIRINDEX 1\2,1\4,1\3\5,1\3\6,1\3\7
REM DIRNAME cjc081,folder01,folder02,folder03,folder04,folder05,folder06
TITLE ""
FILE "CD3Track61.mp3" MP3
  TRACK 01 AUDIO
    TITLE "0:"
    INDEX 01 00:00:00
  TRACK 02 AUDIO
    TITLE "5:cjc081_3391"
    INDEX 01 00:00:29
  TRACK 03 AUDIO
    TITLE "0:"
    INDEX 01 00:01:50
  TRACK 04 AUDIO
    TITLE "6:cjc081_3392"
    INDEX 01 00:02:22
  TRACK 05 AUDIO
    TITLE "0:"
    INDEX 01 00:03:43
  TRACK 06 AUDIO
    TITLE "5:cjc081_3393"
    INDEX 01 00:04:09
  TRACK 07 AUDIO
    TITLE "0:"
    INDEX 01 00:05:26
  TRACK 08 AUDIO
    TITLE "6:cjc081_3394"
    INDEX 01 00:05:69
  TRACK 09 AUDIO
    TITLE "0:"
    INDEX 01 00:07:25
  TRACK 10 AUDIO
    TITLE "5:cjc081_3395"
    INDEX 01 00:07:68
  TRACK 11 AUDIO
    TITLE "0:"
    INDEX 01 00:09:20
  TRACK 12 AUDIO
    TITLE "6:cjc081_3396"
    INDEX 01 00:09:67
  TRACK 13 AUDIO
    TITLE "0:"
    INDEX 01 00:11:21
  TRACK 14 AUDIO
    TITLE "5:cjc081_3397"
    INDEX 01 00:11:64
  TRACK 15 AUDIO
    TITLE "0:"
    INDEX 01 00:13:24
  TRACK 16 AUDIO
    TITLE "6:cjc081_3398"
    INDEX 01 00:14:00
  TRACK 17 AUDIO
    TITLE "0:"
    INDEX 01 00:15:28
  TRACK 18 AUDIO
    TITLE "5:cjc081_3399"
    INDEX 01 00:15:72
  TRACK 19 AUDIO
    TITLE "0:"
    INDEX 01 00:17:21
  TRACK 20 AUDIO
    TITLE "6:cjc081_3400"
    INDEX 01 00:17:67
  TRACK 21 AUDIO
    TITLE "0:"
    INDEX 01 00:19:05
  TRACK 22 AUDIO
    TITLE "5:cjc081_3401"
    INDEX 01 00:19:54
  TRACK 23 AUDIO
    TITLE "0:"
    INDEX 01 00:21:37
  TRACK 24 AUDIO
    TITLE "6:cjc081_3402"
    INDEX 01 00:22:05
  TRACK 25 AUDIO
    TITLE "0:"
    INDEX 01 00:23:28
  TRACK 26 AUDIO
    TITLE "5:cjc081_3403"
    INDEX 01 00:23:73
  TRACK 27 AUDIO
    TITLE "0:"
    INDEX 01 00:25:35
  TRACK 28 AUDIO
    TITLE "6:cjc081_3404"
    INDEX 01 00:26:09
  TRACK 29 AUDIO
    TITLE "0:"
    INDEX 01 00:29:17
  TRACK 30 AUDIO
    TITLE "5:cjc081_3405"
    INDEX 01 00:29:58
  TRACK 31 AUDIO
    TITLE "0:"
    INDEX 01 00:30:73
  TRACK 32 AUDIO
    TITLE "6:cjc081_3406"
    INDEX 01 00:31:47
  TRACK 33 AUDIO
    TITLE "0:"
    INDEX 01 00:33:71
  TRACK 34 AUDIO
    TITLE "5:cjc081_3407"
    INDEX 01 00:34:42
  TRACK 35 AUDIO
    TITLE "0:"
    INDEX 01 00:36:27
  TRACK 36 AUDIO
    TITLE "6:cjc081_3408"
    INDEX 01 00:36:74
  TRACK 37 AUDIO
    TITLE "0:"
    INDEX 01 00:38:35
  TRACK 38 AUDIO
    TITLE "5:cjc081_3409"
    INDEX 01 00:39:02
  TRACK 39 AUDIO
    TITLE "0:"
    INDEX 01 00:40:11
  TRACK 40 AUDIO
    TITLE "6:cjc081_3410"
    INDEX 01 00:40:58
  TRACK 41 AUDIO
    TITLE "0:"
    INDEX 01 00:43:09
  TRACK 42 AUDIO
    TITLE "5:cjc081_3411"
    INDEX 01 00:43:58
  TRACK 43 AUDIO
    TITLE "0:"
    INDEX 01 00:45:08
  TRACK 44 AUDIO
    TITLE "6:cjc081_3412"
    INDEX 01 00:45:55
  TRACK 45 AUDIO
    TITLE "0:"
    INDEX 01 00:47:01
  TRACK 46 AUDIO
    TITLE "5:cjc081_3413"
    INDEX 01 00:47:48
  TRACK 47 AUDIO
    TITLE "0:"
    INDEX 01 00:49:04
  TRACK 48 AUDIO
    TITLE "6:cjc081_3414"
    INDEX 01 00:49:49
  TRACK 49 AUDIO
    TITLE "0:"
    INDEX 01 00:51:05
  TRACK 50 AUDIO
    TITLE "5:cjc081_3415"
    INDEX 01 00:51:48
  TRACK 51 AUDIO
    TITLE "0:"
    INDEX 01 00:52:65
  TRACK 52 AUDIO
    TITLE "6:cjc081_3416"
    INDEX 01 00:53:37
  TRACK 53 AUDIO
    TITLE "0:"
    INDEX 01 00:54:54
  TRACK 54 AUDIO
    TITLE "5:cjc081_3417"
    INDEX 01 00:55:22
  TRACK 55 AUDIO
    TITLE "0:"
    INDEX 01 00:56:37
  TRACK 56 AUDIO
    TITLE "6:cjc081_3418"
    INDEX 01 00:57:07
  TRACK 57 AUDIO
    TITLE "0:"
    INDEX 01 00:58:50
  TRACK 58 AUDIO
    TITLE "7:cjc081_3419"
    INDEX 01 01:00:13
  TRACK 59 AUDIO
    TITLE "0:"
    INDEX 01 01:10:35
